<svg width="31" height="31" viewBox="0 0 31 31" fill="none" xmlns="http://www.w3.org/2000/svg">
<g clip-path="url(#clip0_1_161)">
<path d="M16.7916 9.04165H14.2083V14.2083H9.04165V16.7916H14.2083V21.9583H16.7916V16.7916H21.9583V14.2083H16.7916V9.04165ZM15.5 2.58331C8.36998 2.58331 2.58331 8.36998 2.58331 15.5C2.58331 22.63 8.36998 28.4166 15.5 28.4166C22.63 28.4166 28.4166 22.63 28.4166 15.5C28.4166 8.36998 22.63 2.58331 15.5 2.58331ZM15.5 25.8333C9.80373 25.8333 5.16665 21.1962 5.16665 15.5C5.16665 9.80373 9.80373 5.16665 15.5 5.16665C21.1962 5.16665 25.8333 9.80373 25.8333 15.5C25.8333 21.1962 21.1962 25.8333 15.5 25.8333Z" fill="#008CDB"/>
</g>
<defs>
<clipPath id="clip0_1_161">
<rect width="31" height="31" fill="white"/>
</clipPath>
</defs>
</svg>
