<svg width="42" height="42" viewBox="0 0 42 42" fill="none" xmlns="http://www.w3.org/2000/svg">
<g clip-path="url(#clip0_1_158)">
<path d="M10.5 17.4825H14V29.7325H10.5V17.4825ZM24.5 22.7325H28V29.7325H24.5V22.7325ZM17.5 12.2325H21V29.7325H17.5V12.2325ZM35 12.25V7H31.5V12.25H26.25V15.75H31.5V21H35V15.75H40.25V12.25H35ZM31.5 33.25H7V8.75H28V5.25H7C5.075 5.25 3.5 6.825 3.5 8.75V33.25C3.5 35.175 5.075 36.75 7 36.75H31.5C33.425 36.75 35 35.175 35 33.25V24.5H31.5V33.25Z" fill="#008CDB"/>
</g>
<defs>
<clipPath id="clip0_1_158">
<rect width="42" height="42" fill="white"/>
</clipPath>
</defs>
</svg>
