<svg width="34" height="34" viewBox="0 0 34 34" fill="none" xmlns="http://www.w3.org/2000/svg">
<g clip-path="url(#clip0_1_196)">
<path fill-rule="evenodd" clip-rule="evenodd" d="M28.3333 4.25H5.66666C4.10833 4.25 2.83333 5.525 2.83333 7.08333V26.9167C2.83333 28.475 4.10833 29.75 5.66666 29.75H28.3333C29.8917 29.75 31.1667 28.475 31.1667 26.9167V7.08333C31.1667 5.525 29.8917 4.25 28.3333 4.25ZM14.1667 24.0833H7.08333V21.25H14.1667V24.0833ZM14.1667 18.4167H7.08333V15.5833H14.1667V18.4167ZM14.1667 12.75H7.08333V9.91667H14.1667V12.75ZM20.995 21.25L17 17.2267L18.9975 15.2292L20.995 17.2408L25.4858 12.75L27.4975 14.7617L20.995 21.25Z" fill="#011424"/>
</g>
<defs>
<clipPath id="clip0_1_196">
<rect width="34" height="34" fill="white"/>
</clipPath>
</defs>
</svg>
