<svg width="44" height="42" viewBox="0 0 44 42" fill="none" xmlns="http://www.w3.org/2000/svg">
<g clip-path="url(#clip0_1_213)">
<path d="M7.46512 19.2043V10.0512L21.8605 3.91971L36.2558 10.0512V19.2043C36.2558 27.8351 30.1005 35.9285 21.8605 38.0938C13.6205 35.9285 7.46512 27.8351 7.46512 19.2043Z" stroke="#008CDB" stroke-width="4"/>
</g>
<path d="M23.1734 26.9673C25.6934 26.6802 27.2934 25.2447 27.2934 22.7565C27.2934 17.3017 19.4334 19.9813 19.4334 16.8424C19.4334 15.5409 20.3734 14.9667 21.7134 14.9667C23.3534 14.9667 24.2534 15.7323 24.3734 17.1869C24.3734 17.2635 24.4334 17.3209 24.5134 17.3209H26.7934C26.8734 17.3209 26.9334 17.2635 26.9134 17.1869C26.6334 14.8136 25.2734 13.5504 23.1134 13.1867V11.9618C23.1134 11.8852 23.0534 11.8278 22.9734 11.8278H20.8334C20.7534 11.8278 20.6934 11.8852 20.6934 11.9618V13.1676C18.3934 13.493 17.0334 14.9093 17.0334 17.0721C17.0334 22.4694 24.8534 19.7325 24.8534 23.0819C24.8534 24.5748 23.8534 25.1681 22.2534 25.1681C20.1734 25.1681 19.4934 24.0772 19.3134 22.3355C19.2934 22.2589 19.2334 22.2015 19.1534 22.2015H16.8734C16.7934 22.2015 16.7334 22.2589 16.7334 22.3355C16.8334 24.9959 18.3334 26.4888 20.7534 26.9098V28.5367C20.7534 28.6133 20.8134 28.6707 20.8934 28.6707H23.0334C23.1134 28.6707 23.1734 28.6133 23.1734 28.5367V26.9673Z" fill="#008CDB"/>
<defs>
<clipPath id="clip0_1_213">
<rect width="43.7209" height="41.9002" fill="white"/>
</clipPath>
</defs>
</svg>
