<svg width="42" height="42" viewBox="0 0 42 42" fill="none" xmlns="http://www.w3.org/2000/svg">
<mask id="path-1-inside-1_1_149" fill="white">
<path fill-rule="evenodd" clip-rule="evenodd" d="M6.1507 14.8493L0 21L6.1507 27.1507V35.5217H14.5217L21 41.9999L27.4783 35.5217H35.8491V27.1508L41.9999 21L35.8491 14.8492V5.82322H26.8232L21 0L15.1768 5.82322H6.1507V14.8493Z"/>
</mask>
<path d="M0 21L-2.82843 18.1715L-5.65685 21L-2.82843 23.8284L0 21ZM6.1507 14.8493L8.97913 17.6777L10.1507 16.5061V14.8493H6.1507ZM6.1507 27.1507H10.1507V25.4938L8.97913 24.3222L6.1507 27.1507ZM6.1507 35.5217H2.1507V39.5217H6.1507V35.5217ZM14.5217 35.5217L17.3501 32.6932L16.1785 31.5217H14.5217V35.5217ZM21 41.9999L18.1715 44.8284L21 47.6568L23.8284 44.8284L21 41.9999ZM27.4783 35.5217V31.5217H25.8214L24.6498 32.6932L27.4783 35.5217ZM35.8491 35.5217V39.5217H39.8491V35.5217H35.8491ZM35.8491 27.1508L33.0207 24.3223L31.8491 25.4939V27.1508H35.8491ZM41.9999 21L44.8284 23.8284L47.6568 21L44.8284 18.1715L41.9999 21ZM35.8491 14.8492H31.8491V16.506L33.0207 17.6776L35.8491 14.8492ZM35.8491 5.82322H39.8491V1.82322H35.8491V5.82322ZM26.8232 5.82322L23.9948 8.65164L25.1663 9.82322H26.8232V5.82322ZM21 0L23.8284 -2.82843L21 -5.65685L18.1715 -2.82843L21 0ZM15.1768 5.82322V9.82322H16.8336L18.0052 8.65164L15.1768 5.82322ZM6.1507 5.82322V1.82322H2.1507V5.82322H6.1507ZM2.82843 23.8284L8.97913 17.6777L3.32228 12.0208L-2.82843 18.1715L2.82843 23.8284ZM8.97913 24.3222L2.82843 18.1715L-2.82843 23.8284L3.32228 29.9791L8.97913 24.3222ZM10.1507 35.5217V27.1507H2.1507V35.5217H10.1507ZM14.5217 31.5217H6.1507V39.5217H14.5217V31.5217ZM23.8284 39.1715L17.3501 32.6932L11.6933 38.3501L18.1715 44.8284L23.8284 39.1715ZM24.6498 32.6932L18.1715 39.1715L23.8284 44.8284L30.3067 38.3501L24.6498 32.6932ZM35.8491 31.5217H27.4783V39.5217H35.8491V31.5217ZM31.8491 27.1508V35.5217H39.8491V27.1508H31.8491ZM39.1715 18.1715L33.0207 24.3223L38.6776 29.9792L44.8284 23.8284L39.1715 18.1715ZM33.0207 17.6776L39.1715 23.8284L44.8284 18.1715L38.6776 12.0207L33.0207 17.6776ZM31.8491 5.82322V14.8492H39.8491V5.82322H31.8491ZM26.8232 9.82322H35.8491V1.82322H26.8232V9.82322ZM18.1715 2.82843L23.9948 8.65164L29.6516 2.99479L23.8284 -2.82843L18.1715 2.82843ZM18.0052 8.65164L23.8284 2.82843L18.1715 -2.82843L12.3483 2.99479L18.0052 8.65164ZM6.1507 9.82322H15.1768V1.82322H6.1507V9.82322ZM10.1507 14.8493V5.82322H2.1507V14.8493H10.1507Z" fill="#008CDB" mask="url(#path-1-inside-1_1_149)"/>
</svg>
